<?xml version="1.0" standalone="no"?>
<!DOCTYPE svg PUBLIC "-//W3C//DTD SVG 20010904//EN"
 "http://www.w3.org/TR/2001/REC-SVG-20010904/DTD/svg10.dtd">
<svg version="1.0" xmlns="http://www.w3.org/2000/svg"
 width="573.000000pt" height="573.000000pt" viewBox="0 0 573.000000 573.000000"
 preserveAspectRatio="xMidYMid meet">
<metadata>
Created by potrace 1.14, written by Peter Selinger 2001-2017
</metadata>
<g transform="translate(0.000000,573.000000) scale(0.100000,-0.100000)"
fill="#000000" stroke="none">
<path d="M2835 5145 c-16 -7 -70 -32 -120 -55 -201 -93 -298 -139 -460 -221
-203 -104 -258 -132 -265 -139 -3 -3 -15 -11 -27 -17 -13 -7 -33 -19 -45 -25
-13 -7 -25 -15 -28 -18 -3 -3 -17 -11 -32 -19 -15 -8 -37 -22 -47 -33 -11 -10
-25 -18 -31 -18 -5 0 -10 -4 -10 -10 0 -5 -7 -10 -15 -10 -8 0 -15 -4 -15 -8
0 -4 -14 -16 -30 -26 -17 -9 -41 -28 -55 -42 -13 -13 -28 -24 -32 -24 -20 0
-63 -49 -63 -71 0 -39 14 -52 30 -29 8 11 19 20 25 20 6 0 17 9 25 20 8 11 20
20 26 20 7 0 14 4 16 8 4 11 112 83 158 107 19 10 37 21 40 24 9 12 74 40 82
35 12 -7 10 -72 -2 -79 -5 -3 -10 -44 -10 -90 0 -46 5 -87 10 -90 6 -3 10 -22
10 -41 0 -19 5 -34 10 -34 6 0 10 -9 10 -20 0 -11 5 -20 10 -20 6 0 10 -9 10
-20 0 -11 4 -20 8 -20 5 0 15 -12 23 -27 18 -36 67 -91 152 -173 l68 -65 -12
-70 c-26 -152 19 -496 81 -606 13 -24 0 -37 -135 -127 -155 -104 -236 -172
-299 -249 -34 -40 -59 -62 -73 -62 -13 -1 -23 4 -23 9 0 6 -9 10 -20 10 -11 0
-20 5 -20 10 0 6 -6 10 -13 10 -7 0 -43 20 -80 45 -37 25 -72 45 -77 45 -6 0
-10 5 -10 10 0 24 -18 7 -22 -20 -3 -17 -1 -30 2 -30 4 0 21 -13 38 -30 18
-17 37 -30 43 -30 7 0 19 -8 28 -18 9 -9 30 -24 46 -32 50 -24 85 -60 75 -79
-33 -67 -43 -113 -43 -211 0 -72 12 -152 28 -195 24 -66 62 -137 98 -185 47
-63 46 -62 112 -116 103 -84 180 -131 440 -269 248 -131 345 -225 394 -376 7
-24 11 -167 11 -448 l0 -412 43 3 42 3 6 450 c6 429 10 508 30 521 5 3 9 14 9
25 0 10 5 19 10 19 6 0 10 7 10 16 0 19 69 121 123 181 63 70 186 186 247 235
30 23 57 45 60 48 3 4 43 35 90 70 47 35 87 67 90 70 3 3 21 17 40 30 19 13
37 27 40 30 3 3 50 39 105 80 393 292 615 550 684 790 5 19 15 54 22 77 16 56
16 310 1 393 -7 36 -18 90 -24 120 -5 30 -13 64 -18 75 -4 11 -13 38 -19 60
-13 41 -16 49 -46 120 -103 240 -279 456 -545 670 -81 65 -343 245 -356 245
-3 0 -18 8 -32 19 -15 10 -44 28 -64 40 -21 11 -55 31 -75 43 -60 35 -396 205
-418 211 -11 4 -33 0 -50 -8z m186 -153 c74 -38 165 -88 203 -110 37 -23 71
-42 75 -42 15 -1 142 -88 135 -92 -5 -3 -79 -6 -166 -6 -92 0 -164 -5 -176
-11 -12 -6 -36 -11 -56 -11 -19 0 -38 -4 -41 -10 -3 -5 -17 -10 -31 -10 -13 0
-32 -4 -42 -9 -9 -5 -28 -13 -42 -18 -165 -65 -345 -196 -435 -318 -17 -22
-32 -42 -35 -45 -14 -14 -77 -136 -101 -197 -20 -52 -33 -73 -43 -73 -31 0
-206 216 -206 255 0 8 -4 15 -9 15 -19 0 -39 186 -22 203 6 6 11 24 11 39 0
29 4 41 34 93 10 17 20 38 23 47 6 21 298 166 611 303 31 14 73 34 92 44 19
11 47 20 61 20 14 1 87 -30 160 -67z m409 -342 c72 -11 111 -20 135 -30 11 -4
36 -13 55 -20 71 -24 123 -55 162 -96 115 -121 144 -229 92 -341 -32 -67 -144
-184 -234 -244 -36 -23 -67 -45 -70 -48 -3 -3 -16 -12 -30 -20 -14 -8 -61 -36
-106 -61 -44 -26 -158 -86 -253 -134 l-172 -87 -42 24 c-40 23 -68 39 -154 88
-21 12 -42 25 -48 29 -5 4 -27 17 -47 29 -98 55 -115 65 -138 81 -14 9 -30 19
-36 21 -7 2 -53 31 -102 64 -78 51 -91 64 -92 88 0 15 4 35 9 45 5 9 13 28 18
42 11 27 39 84 76 152 30 57 189 217 258 261 72 45 205 108 259 122 14 3 41
11 60 17 85 25 292 34 400 18z m620 -394 c150 -163 289 -434 321 -626 25 -150
34 -305 22 -390 -17 -125 -20 -136 -73 -245 -93 -191 -223 -332 -550 -596 -86
-69 -157 -119 -169 -119 -7 0 6 26 27 58 97 144 132 246 132 384 -1 168 -66
305 -219 458 -94 94 -156 150 -166 150 -5 0 -79 54 -118 86 -9 8 -19 14 -22
14 -15 0 -115 75 -115 85 0 7 69 47 153 89 159 81 169 86 282 153 273 161 415
319 431 478 4 36 11 65 15 65 5 0 27 -20 49 -44z m-1675 -398 c14 -6 25 -15
25 -20 0 -4 6 -8 13 -8 6 0 28 -14 47 -30 19 -16 39 -30 43 -30 4 0 35 -18 67
-40 32 -22 64 -40 69 -40 6 0 11 -4 11 -10 0 -5 4 -10 10 -10 19 0 230 -132
230 -144 0 -7 -87 -56 -192 -110 -106 -53 -212 -108 -235 -121 -39 -22 -42
-23 -57 -6 -9 10 -16 23 -16 29 0 7 -4 20 -9 30 -15 30 -31 88 -31 113 0 14
-4 29 -9 34 -21 22 -39 321 -22 354 13 24 20 25 56 9z m739 -454 c307 -201
458 -349 524 -514 5 -14 15 -38 21 -53 6 -15 11 -70 11 -122 0 -52 -5 -107
-11 -122 -6 -15 -15 -37 -19 -48 -45 -120 -115 -209 -328 -416 -98 -96 -205
-204 -237 -242 -38 -43 -62 -64 -68 -58 -7 7 -5 37 3 86 10 60 10 90 1 153
-16 98 -31 172 -42 197 -4 11 -14 38 -21 60 -30 93 -142 289 -272 479 -36 52
-66 99 -66 105 0 5 -3 11 -8 13 -9 3 -112 174 -112 186 0 4 -9 18 -20 32 -31
40 -25 55 33 84 28 15 71 38 95 51 23 14 49 25 56 25 8 0 16 4 18 8 2 5 48 29
103 55 55 27 127 61 160 77 33 15 64 29 69 29 4 1 54 -29 110 -65z m-704 -319
c42 -78 70 -126 101 -172 16 -23 29 -44 29 -47 0 -3 13 -24 29 -48 149 -224
194 -298 245 -403 56 -115 76 -164 76 -183 0 -10 4 -22 9 -27 22 -24 37 -250
22 -339 -14 -82 -31 -145 -41 -151 -4 -3 -24 46 -45 108 -60 181 -117 292
-214 417 -45 58 -175 187 -226 225 -22 16 -42 32 -45 35 -10 11 -175 117 -220
141 -25 13 -47 26 -50 29 -3 3 -23 14 -45 26 -101 52 -128 74 -119 97 3 10 10
17 15 17 5 0 9 6 9 13 0 16 81 92 187 175 76 59 217 143 237 140 12 -2 30 -22
46 -53z m-456 -425 c37 -22 70 -40 73 -40 2 0 24 -13 48 -30 24 -16 48 -30 53
-30 5 0 17 -9 27 -20 10 -11 22 -20 28 -20 5 0 37 -21 71 -46 195 -146 297
-254 389 -409 34 -58 107 -221 107 -240 0 -8 4 -24 9 -37 14 -36 29 -99 36
-145 4 -34 2 -43 -9 -43 -8 0 -19 6 -23 13 -10 15 -85 74 -138 108 -90 57
-125 77 -230 129 -60 30 -112 57 -115 61 -3 3 -20 12 -37 20 -18 8 -33 17 -33
21 0 5 -5 8 -11 8 -8 0 -91 53 -148 95 -57 41 -152 153 -181 212 -47 98 -48
102 -55 173 -9 97 -4 160 15 205 4 11 11 28 14 38 8 26 35 21 110 -23z"/>
</g>
</svg>
